<svg version="1.1" viewBox="0 0 108 37" fill="none" xmlns:xlink="https://www.w3.org/1999/xlink" xmlns="http://www.w3.org/2000/svg" xml:space="preserve">
<g filter="url(#filter0_d)">
<path fill-rule="evenodd" clip-rule="evenodd" d="M50.3087 17.8771H48.3686V32.0062H57.5113V30.3487H50.3087V17.8771ZM59.8997 25.5097H67.9838V23.8553H59.8997V19.5117H68.5342V17.8572H57.9565V31.9851H68.8835V30.3239H59.8997V25.5097ZM44.0915 29.1348C43.1688 30.0996 41.9898 30.583 40.5644 30.583C39.1588 30.583 37.9914 30.1057 37.0618 29.149C36.1337 28.1904 35.6694 26.877 35.6694 25.2096C35.6694 23.1298 36.1534 21.6445 37.1231 20.755C38.0917 19.8661 39.2497 19.4228 40.5897 19.4228C41.5381 19.4228 42.3923 19.6551 43.1512 20.1142C43.9111 20.5758 44.4889 21.2262 44.8829 22.068C45.283 22.9055 45.4734 23.8874 45.4734 25.0105C45.4734 26.7897 45.0161 28.1656 44.0915 29.1348ZM44.1701 18.751C43.1058 18.1407 41.9082 17.8361 40.5829 17.8361C38.5565 17.8361 36.9046 18.4868 35.6261 19.7858C34.3439 21.083 33.7027 22.8799 33.7027 25.1744C33.7027 26.3917 33.9812 27.5416 34.5275 28.6319C35.0752 29.7179 35.8815 30.5779 36.9479 31.2099C38.0138 31.8382 39.2193 32.1513 40.5742 32.1513C41.8214 32.1513 42.984 31.8684 44.0603 31.2954C45.1392 30.7277 45.9722 29.8904 46.5606 28.7841C47.1481 27.6752 47.4419 26.4185 47.4419 25.0193C47.4419 23.6328 47.1622 22.3964 46.6041 21.3016C46.0489 20.2109 45.2347 19.3632 44.1701 18.751ZM30.5711 29.0771C30.3832 29.4135 30.1412 29.6704 29.8456 29.8492C29.5512 30.0256 29.1856 30.1512 28.7476 30.227C28.4973 30.2725 28.0681 30.2944 27.4551 30.2944H23.8747V25.5151H27.1955C28.1124 25.5151 28.8151 25.5935 29.2987 25.749C29.7835 25.9029 30.1653 26.1717 30.4416 26.5539C30.7159 26.9364 30.8535 27.3904 30.8535 27.9022C30.8535 28.349 30.7596 28.7395 30.5711 29.0771ZM23.8747 19.6924H26.7451C27.7778 19.6924 28.505 19.7594 28.9295 19.8852C29.3565 20.0146 29.6805 20.2523 29.9094 20.6049C30.1412 20.9582 30.2556 21.3624 30.2556 21.8252C30.2556 22.3118 30.1301 22.716 29.8848 23.0372C29.6386 23.3585 29.2775 23.59 28.7909 23.7305C28.4259 23.8362 27.8224 23.8901 26.9802 23.8901H23.8747V19.6924ZM30.4269 24.4969C31.1263 24.166 31.6476 23.7305 31.9946 23.1929C32.3412 22.6547 32.5134 22.0813 32.5134 21.47C32.5134 20.815 32.317 20.1849 31.9258 19.5848C31.5341 18.9887 30.9958 18.5443 30.3064 18.2544C29.6156 17.9678 28.7016 17.8203 27.5609 17.8203H21.9528V32.09H27.6542C28.6078 32.09 29.4095 32.0062 30.0654 31.8505C30.7232 31.692 31.2695 31.458 31.7023 31.1433C32.1367 30.8344 32.5049 30.3888 32.7978 29.814C33.0955 29.2397 33.2409 28.6196 33.2409 27.9474C33.2409 27.1216 33.0025 26.3989 32.5146 25.7892C32.0296 25.1789 31.3341 24.7503 30.4269 24.4969ZM105.403 26.0475C105.003 25.4784 104.389 25.007 103.556 24.6366C102.982 24.3885 101.921 24.0937 100.374 23.7584C98.8345 23.4162 97.8794 23.0897 97.5142 22.7648C97.1396 22.4454 96.9527 22.0369 96.9527 21.539C96.9527 20.9662 97.2175 20.4766 97.7425 20.0702C98.2704 19.6635 99.1069 19.4611 100.256 19.4611C101.359 19.4611 102.195 19.6846 102.762 20.1298C103.322 20.5758 103.657 21.2385 103.751 22.1108L105.576 21.9773C105.544 21.1637 105.312 20.4356 104.873 19.793C104.434 19.1487 103.808 18.6603 102.999 18.3294C102.186 18.0018 101.246 17.8361 100.184 17.8361C99.2169 17.8361 98.3381 17.9926 97.549 18.3069C96.7607 18.622 96.1549 19.0893 95.7454 19.6934C95.3331 20.3033 95.1301 20.9582 95.1301 21.6579C95.1301 22.2942 95.2983 22.8698 95.6349 23.3845C95.9679 23.8962 96.4765 24.3277 97.1607 24.6802C97.6899 24.9474 98.6134 25.2375 99.9327 25.5419C101.251 25.847 102.105 26.0731 102.49 26.218C103.091 26.4372 103.521 26.7103 103.783 27.0344C104.044 27.3572 104.176 27.7327 104.176 28.1675C104.176 28.5936 104.036 28.9898 103.768 29.3547C103.501 29.7179 103.085 30.0045 102.53 30.2124C101.974 30.4237 101.336 30.529 100.609 30.529C99.7927 30.529 99.0609 30.3888 98.409 30.111C97.7547 29.8388 97.2768 29.4737 96.9639 29.0308C96.6532 28.5829 96.4599 28.014 96.3741 27.3128L94.5873 27.4679C94.6125 28.3961 94.8777 29.224 95.3724 29.9572C95.874 30.6894 96.5597 31.2394 97.4382 31.6043C98.3149 31.9692 99.404 32.1513 100.7 32.1513C101.722 32.1513 102.644 31.9692 103.461 31.6115C104.278 31.2499 104.907 30.7437 105.344 30.0907C105.783 29.4407 106 28.7483 106 28.014C106 27.2691 105.801 26.6152 105.403 26.0475ZM90.8638 29.1348C89.9402 30.0996 88.7668 30.583 87.3373 30.583C85.9337 30.583 84.7661 30.1057 83.8374 29.149C82.9092 28.1904 82.4421 26.877 82.4421 25.2096C82.4421 23.1298 82.9266 21.6445 83.8993 20.755C84.8641 19.8661 86.0212 19.4228 87.3663 19.4228C88.3116 19.4228 89.1652 19.6551 89.9247 20.1142C90.6862 20.5758 91.2603 21.2262 91.6583 22.068C92.0542 22.9055 92.252 23.8874 92.252 25.0105C92.252 26.7897 91.7871 28.1656 90.8638 29.1348ZM90.944 18.751C89.8801 18.1407 88.6845 17.8361 87.3574 17.8361C85.3321 17.8361 83.6803 18.4868 82.3967 19.7858C81.1168 21.083 80.4758 22.8799 80.4758 25.1744C80.4758 26.3917 80.7526 27.5416 81.3003 28.6319C81.8485 29.7179 82.6552 30.5779 83.7195 31.2099C84.7835 31.8382 85.994 32.1513 87.3462 32.1513C88.595 32.1513 89.7598 31.8684 90.8346 31.2954C91.9146 30.7277 92.7482 29.8904 93.3339 28.7841C93.9233 27.6752 94.216 26.4185 94.216 25.0193C94.216 23.6328 93.9355 22.3964 93.3788 21.3016C92.8172 20.2109 92.0082 19.3632 90.944 18.751ZM80.7886 17.8572H69.3074V19.4855H74.0893V31.9974H76.0125V19.4855H80.7886V17.8572ZM94.0455 7.83231V3.93392H98.4605C99.2832 3.93392 99.9006 4.02304 100.308 4.19041C101.042 4.49402 101.407 5.08199 101.407 5.96127C101.407 6.77151 101.031 7.31973 100.276 7.59384C99.8467 7.75466 99.2037 7.83231 98.3493 7.83231H94.0455ZM100.097 10.8887C100.447 11.1474 100.629 11.7037 100.642 12.5467L100.669 13.8959C100.677 14.3358 100.732 14.7742 100.834 15.1962C100.886 15.4045 100.972 15.6744 101.09 15.9999L101.152 16.1572H105.749V15.4002L105.613 15.3333C105.313 15.1882 105.132 14.9696 105.051 14.665C105.007 14.5146 104.962 14.1719 104.962 13.378V12.4061C104.962 11.3257 104.772 10.5398 104.384 10.002C104.106 9.60009 103.679 9.26678 103.11 9.00291C103.843 8.70176 104.405 8.27646 104.772 7.71594C105.233 7.00895 105.465 6.28086 105.465 5.5458C105.465 4.94145 105.339 4.38975 105.092 3.91097C104.85 3.44286 104.52 3.01018 104.106 2.62585C103.603 2.1561 102.984 1.7982 102.263 1.55789C101.56 1.3266 100.547 1.19384 99.2563 1.17315H90.0846V16.1572H94.2941V10.473H97.9654C99.024 10.4749 99.7419 10.6146 100.097 10.8887ZM23.7664 14.9489C25.1151 15.8026 26.9781 16.2375 29.3092 16.2375C31.5933 16.2357 33.3945 15.7965 34.658 14.9241C35.9594 14.0268 36.622 12.8743 36.622 11.5107C36.622 10.1694 36.0514 9.1289 34.9203 8.41802C34.2211 7.97981 33.1782 7.62416 31.8251 7.36501L28.8006 6.78729C27.6624 6.56952 26.9179 6.38186 26.582 6.23005C25.9785 5.95779 25.9071 5.60296 25.9071 5.35528C25.9071 4.9185 26.1379 4.58007 26.6096 4.32747C27.1273 4.04373 27.8458 3.90032 28.7358 3.90032C29.5438 3.90032 30.2249 4.01505 30.7646 4.23589C31.5208 4.54667 31.9161 5.05638 31.9718 5.79512L31.9894 6.04957H36.0616L36.0514 5.76214C35.9845 4.1859 35.2435 2.9647 33.8567 2.14053C32.5187 1.33356 30.8813 0.923216 28.9871 0.923216C26.7215 0.923216 24.9754 1.35917 23.7871 2.22083C22.5739 3.10094 21.9563 4.22708 21.9563 5.56649C21.9563 7.04193 22.6031 8.1394 23.877 8.83533C24.6098 9.24035 25.8754 9.60009 27.7463 9.9373L29.6045 10.2708C30.6623 10.4542 31.4419 10.6689 31.9237 10.9012C32.4684 11.1726 32.5301 11.5037 32.5301 11.7254C32.5301 12.3865 32.0942 12.8298 31.1951 13.0855C30.6832 13.2303 30.0006 13.3059 29.1667 13.3059C27.8025 13.3059 26.8402 13.0388 26.2999 12.5182C26.0204 12.2457 25.8246 11.8124 25.726 11.2366L25.686 11.0077H21.6723V11.2818C21.6723 12.8298 22.3781 14.0651 23.7664 14.9489ZM60.2258 3.9374H63.721C64.609 3.9374 65.2953 4.09249 65.7811 4.41208C66.2759 4.72982 66.5243 5.2592 66.5243 6.00593C66.5243 6.74754 66.2759 7.29556 65.7811 7.63748C65.2953 7.98083 64.609 8.15087 63.721 8.15087H60.2258V3.9374ZM60.4703 10.8602H64.0392C66.0691 10.8602 67.6593 10.4925 68.7669 9.77423C69.9047 9.02749 70.4829 7.75466 70.4829 5.98565C70.4829 4.35963 69.9109 3.14109 68.7708 2.35871C67.6612 1.59579 66.164 1.20614 64.3183 1.20614H56.2533V16.0097H60.4703V10.8602ZM87.4838 13.0664H77.4445V9.83753H86.2503V6.83605H77.4445V4.25515H87.5169V1.20614H73.2501V16.1548H87.4838V13.0664ZM14.4687 16.71C14.002 16.4137 13.3048 16.1781 12.4016 16.0017L10.3868 15.6192C9.62693 15.4746 9.12703 15.3494 8.9037 15.2491C8.50365 15.0673 8.45662 14.8285 8.45662 14.665C8.45662 14.3741 8.60951 14.1471 8.92338 13.976C9.27122 13.791 9.74709 13.6976 10.3442 13.6976C10.8824 13.6976 11.3384 13.7703 11.6935 13.9166C12.1969 14.1264 12.4619 14.4675 12.4992 14.9594L12.5159 15.1286H15.2319L15.2247 14.9348C15.176 13.8826 14.6846 13.0717 13.7592 12.5182C12.8661 11.9804 11.7703 11.7077 10.5101 11.7077C8.99589 11.7077 7.83075 11.9976 7.04019 12.5733C6.23222 13.159 5.81891 13.9082 5.81891 14.8055C5.81891 15.7889 6.25004 16.5241 7.10006 16.9877C7.58836 17.2574 8.4301 17.4964 9.681 17.7236L10.9205 17.9418C11.6286 18.0692 12.1484 18.209 12.4683 18.3673C12.8306 18.5462 12.8723 18.766 12.8723 18.9155C12.8723 19.3562 12.5839 19.6551 11.9837 19.8206C11.6446 19.9177 11.1876 19.9667 10.6292 19.9667C9.71829 19.9667 9.07523 19.7876 8.71683 19.4443C8.53099 19.2601 8.4011 18.9737 8.33273 18.5861L8.30911 18.4341H5.62873V18.6193C5.62873 19.6551 6.09839 20.4766 7.02714 21.0658C7.92564 21.64 9.1697 21.9266 10.7237 21.9266C12.2458 21.9266 13.453 21.6312 14.2945 21.0554C15.1634 20.4502 15.6032 19.6846 15.6032 18.7689C15.6032 17.8771 15.2206 17.1785 14.4687 16.71ZM46.595 16.0802C49.7011 16.0802 51.846 15.2816 52.9678 13.7046C53.574 12.8333 53.8791 11.6203 53.8791 10.091V1.25162H49.6756V10.091C49.6756 11.0008 49.5476 11.6692 49.2845 12.073C48.8834 12.788 47.9772 13.1414 46.595 13.1414C45.204 13.1414 44.2952 12.788 43.8978 12.0857C43.6304 11.6692 43.499 11.0008 43.499 10.091V1.25162H39.2959V10.091C39.2959 11.6203 39.6023 12.8333 40.2089 13.7003C41.3391 15.2816 43.4895 16.0802 46.595 16.0802ZM10.6124 24.2033C6.41743 24.2033 3.01526 20.8407 3.01526 16.688C3.01526 12.5389 6.41743 9.17602 10.6124 9.17602C14.8066 9.17602 18.2113 12.5389 18.2113 16.688C18.2113 20.8407 14.8066 24.2033 10.6124 24.2033ZM15.2164 1.133C14.2104 2.54391 12.6137 3.35046 10.7347 3.35046C8.79058 3.35046 6.8786 2.1098 6.18602 1.133H1.99992V31.945V31.9817H5.99294C6.99689 30.5691 8.59149 29.7603 10.4753 29.7603C12.4167 29.7603 14.3258 31.0071 15.0227 31.9817H19.2082V31.945V31.938V1.16783H19.2051C19.2082 1.14324 19.2082 1.13136 19.2082 1.133H15.2164Z" fill="white"/>
<path fill-rule="evenodd" clip-rule="evenodd" d="M39.3362 9.55992C40.7211 9.44847 42.1243 9.34788 43.5391 9.25631V1.25159H39.3362V9.55992ZM34.9582 8.418C34.258 7.97999 33.218 7.62414 31.8645 7.36519L28.8394 6.78727C27.7 6.56949 26.9548 6.38184 26.6208 6.23024C26.0159 5.95777 25.9461 5.60314 25.9461 5.35526C25.9461 4.91848 26.1754 4.58004 26.6463 4.32745C27.1644 4.04371 27.8825 3.90051 28.7754 3.90051C29.5838 3.90051 30.265 4.01503 30.8024 4.23587C31.5594 4.54665 31.9544 5.05656 32.0116 5.79531L32.0294 6.04955H36.0999L36.0896 5.76212C36.0225 4.18609 35.2822 2.96468 33.8938 2.14051C32.5552 1.33354 30.919 0.923195 29.0261 0.923195C26.7609 0.923195 25.0128 1.35915 23.825 2.22081C22.6116 3.10092 21.9955 4.22706 21.9955 5.56647C21.9955 7.04191 22.6423 8.13938 23.917 8.83531C24.6467 9.24033 25.9121 9.60007 27.7849 9.93728L29.6432 10.2708C29.8848 10.3128 30.1069 10.3564 30.3186 10.4017C32.2652 10.1889 34.2522 9.99136 36.2742 9.81334C35.9908 9.25979 35.5526 8.79167 34.9582 8.418ZM21.7125 11.2818C21.7125 11.3506 21.721 11.4146 21.7227 11.4789C22.8754 11.3168 24.0432 11.1577 25.2274 11.0077H21.7125V11.2818ZM15.2531 1.13298C14.249 2.54389 12.6537 3.35044 10.7741 3.35044C8.82978 3.35044 6.91738 2.10978 6.22294 1.13298H2.03974V15.2896C2.44061 15.1863 2.84791 15.0833 3.25791 14.9802C4.04081 11.6565 7.05059 9.176 10.6498 9.176C13.1595 9.176 15.3797 10.3859 16.7651 12.2422C17.5817 12.1078 18.4079 11.9753 19.2443 11.8474V1.1678H19.2435C19.2443 1.14322 19.2443 1.13134 19.2443 1.13298H15.2531ZM49.7157 8.90681C51.1064 8.84248 52.5065 8.78307 53.9187 8.73308V1.25159H49.7157V8.90681ZM73.2868 8.55771C77.7184 8.6327 82.0599 8.78819 86.2886 9.01354V6.83623H77.483V4.25513H87.5543V1.20632H73.2868V8.55771ZM10.5499 11.7077C9.03508 11.7077 7.86809 11.9976 7.07959 12.5733C6.41064 13.0557 6.03027 13.6574 5.91301 14.3525C8.48587 13.765 11.2019 13.2184 14.0495 12.7087C13.9627 12.6456 13.8928 12.5759 13.7988 12.5182C12.9059 11.9804 11.8095 11.7077 10.5499 11.7077ZM65.8214 7.63746C65.3318 7.98081 64.6473 8.15106 63.7604 8.15106H60.2634V3.93738H63.7604C64.6473 3.93738 65.3318 4.09267 65.8214 4.41226C66.3159 4.7298 66.5643 5.25917 66.5643 6.00591C66.5643 6.74752 66.3159 7.29554 65.8214 7.63746ZM68.8098 2.35869C67.7012 1.59577 66.2019 1.20632 64.3575 1.20632H56.2927V8.65728C59.7871 8.5569 63.3442 8.50261 66.9507 8.50261C67.9554 8.50261 68.9573 8.50875 69.9557 8.51859C70.3269 7.83495 70.5237 6.99316 70.5237 5.98563C70.5237 4.35961 69.9484 3.14107 68.8098 2.35869ZM100.312 7.59382C99.8867 7.75464 99.2422 7.83229 98.3889 7.83229H94.0855V3.9339H98.5001C99.3203 3.9339 99.9402 4.02302 100.346 4.1906C101.082 4.494 101.447 5.08217 101.447 5.96145C101.447 6.77149 101.068 7.31971 100.312 7.59382ZM104.81 7.71592C105.272 7.00893 105.504 6.28084 105.504 5.54578C105.504 4.94143 105.379 4.38972 105.132 3.91095C104.889 3.44304 104.557 3.01016 104.145 2.62583C103.642 2.15608 103.022 1.79818 102.303 1.55787C101.599 1.32658 100.588 1.19382 99.2932 1.17313H90.1246V9.24033C95.1748 9.56873 100.048 10.002 104.702 10.5273C104.625 10.3316 104.532 10.1536 104.422 10.002C104.145 9.60007 103.719 9.26675 103.152 9.00289C103.882 8.70194 104.445 8.27643 104.81 7.71592Z" fill="white"/>
</g>
<defs>
<filter id="filter0_d" x="-8.2016e-05" y="0.923195" width="108" height="35.2281" filterUnits="userSpaceOnUse" color-interpolation-filters="sRGB">
<feFlood flood-opacity="0" result="BackgroundImageFix"/>
<feColorMatrix in="SourceAlpha" type="matrix" values="0 0 0 0 0 0 0 0 0 0 0 0 0 0 0 0 0 0 127 0"/>
<feOffset dy="2"/>
<feGaussianBlur stdDeviation="1"/>
<feColorMatrix type="matrix" values="0 0 0 0 0 0 0 0 0 0 0 0 0 0 0 0 0 0 0.5 0"/>
<feBlend mode="normal" in2="BackgroundImageFix" result="effect1_dropShadow"/>
<feBlend mode="normal" in="SourceGraphic" in2="effect1_dropShadow" result="shape"/>
</filter>
</defs>
</svg>
